# xmcd CD database file
#
# Track frame offsets:
#	150
#	23586
#	43962
#	67144
#	88845
#	115461
#	140733
#	159030
#	185417
#	208077
#	228491
#	247179
#	260975
#	277186
#	293879
#	317266
#	332898
#
# Disc length: 4668 seconds
#
# Revision: 1
# Processed by: cddbd v1.5.2PL0 Copyright (c) Steve Scherf et al.
# Submitted via: CDex 1.70beta2
#
DISCID=11123a11
DTITLE=Michael Connelly - 9 Dragons Disc 2
DYEAR=2009
DGENRE=Audio Book
TTITLE0=9 Dragons Disc 2-01
TTITLE1=9 Dragons Disc 2-02
TTITLE2=9 Dragons Disc 2-03
TTITLE3=9 Dragons Disc 2-04
TTITLE4=9 Dragons Disc 2-05
TTITLE5=9 Dragons Disc 2-06
TTITLE6=9 Dragons Disc 2-07
TTITLE7=9 Dragons Disc 2-08
TTITLE8=9 Dragons Disc 2-09
TTITLE9=9 Dragons Disc 2-10
TTITLE10=9 Dragons Disc 2-11
TTITLE11=9 Dragons Disc 2-12
TTITLE12=9 Dragons Disc 2-13
TTITLE13=9 Dragons Disc 2-14
TTITLE14=9 Dragons Disc 2-15
TTITLE15=9 Dragons Disc 2-16
TTITLE16=9 Dragons Disc 2-17
EXTD=YEAR: 2009
EXTT0=
EXTT1=
EXTT2=
EXTT3=
EXTT4=
EXTT5=
EXTT6=
EXTT7=
EXTT8=
EXTT9=
EXTT10=
EXTT11=
EXTT12=
EXTT13=
EXTT14=
EXTT15=
EXTT16=
PLAYORDER=
